<svg width="872" height="822" viewBox="0 0 872 822" fill="none" xmlns="http://www.w3.org/2000/svg">
<path d="M38.4184 378.113C38.4184 379.039 39.1693 379.768 40.1223 379.768C41.0753 379.768 41.8262 379.039 41.8262 378.113C41.8262 377.216 41.0753 376.458 40.1223 376.458C39.1693 376.458 38.4184 377.216 38.4184 378.113Z" fill="white"/>
<path d="M42.0601 346.527C42.0601 347.509 42.8687 348.295 43.8794 348.295C44.8613 348.295 45.6699 347.509 45.6699 346.527C45.6699 345.574 44.8613 344.788 43.8794 344.788C42.8687 344.788 42.0601 345.574 42.0601 346.527Z" fill="white"/>
<path d="M46.3914 310.482C46.3914 311.491 47.2 312.277 48.2397 312.277C49.2504 312.277 50.0879 311.491 50.0879 310.482C50.0879 309.5 49.2504 308.686 48.2397 308.686C47.2 308.686 46.3914 309.5 46.3914 310.482Z" fill="white"/>
<path d="M73.6258 238.923C73.6258 239.428 74.0301 239.848 74.5499 239.848C75.0986 239.848 75.5029 239.428 75.5029 238.923C75.5029 238.418 75.0986 237.997 74.5499 237.997C74.0301 237.997 73.6258 238.418 73.6258 238.923Z" fill="white"/>
<path d="M146.688 134.235C146.688 134.544 146.919 134.768 147.237 134.768C147.526 134.768 147.757 134.544 147.757 134.235C147.757 133.955 147.526 133.73 147.237 133.73C146.919 133.73 146.688 133.955 146.688 134.235Z" fill="white"/>
<path d="M175.048 106.38C175.048 106.857 175.423 107.222 175.914 107.222C176.376 107.222 176.78 106.857 176.78 106.38C176.78 105.932 176.376 105.539 175.914 105.539C175.423 105.539 175.048 105.932 175.048 106.38Z" fill="white"/>
<path d="M283.201 39.1135C283.201 40.3478 284.212 41.3296 285.482 41.3296C286.753 41.3296 287.764 40.3478 287.764 39.1135C287.764 37.9073 286.753 36.8975 285.482 36.8975C284.212 36.8975 283.201 37.9073 283.201 39.1135Z" fill="white"/>
<path d="M331.54 22.3951C331.54 23.5452 332.493 24.4709 333.677 24.4709C334.861 24.4709 335.814 23.5452 335.814 22.3951C335.814 21.245 334.861 20.3193 333.677 20.3193C332.493 20.3193 331.54 21.245 331.54 22.3951Z" fill="white"/>
<path d="M364.06 14.7091C364.06 15.2421 364.493 15.6909 365.042 15.6909C365.591 15.6909 366.053 15.2421 366.053 14.7091C366.053 14.1761 365.591 13.7554 365.042 13.7554C364.493 13.7554 364.06 14.1761 364.06 14.7091Z" fill="white"/>
<path d="M405.731 10.1366C405.731 10.333 405.904 10.5013 406.106 10.5013C406.337 10.5013 406.511 10.333 406.511 10.1366C406.511 9.9122 406.337 9.7439 406.106 9.7439C405.904 9.7439 405.731 9.9122 405.731 10.1366Z" fill="white"/>
<path d="M448.244 6.26571C448.244 6.68648 448.59 7.0231 449.024 7.0231C449.428 7.0231 449.774 6.68648 449.774 6.26571C449.774 5.87299 449.428 5.53638 449.024 5.53638C448.59 5.53638 448.244 5.87299 448.244 6.26571Z" fill="white"/>
<path d="M574.415 29.38C574.415 30.2496 575.137 30.9228 576.032 30.9228C576.898 30.9228 577.62 30.2496 577.62 29.38C577.62 28.5384 576.898 27.8372 576.032 27.8372C575.137 27.8372 574.415 28.5384 574.415 29.38Z" fill="white"/>
<path d="M656.257 66.4917C656.257 66.9686 656.633 67.3332 657.124 67.3332C657.586 67.3332 657.99 66.9686 657.99 66.4917C657.99 66.0429 657.586 65.6501 657.124 65.6501C656.633 65.6501 656.257 66.0429 656.257 66.4917Z" fill="white"/>
<path d="M690.277 87.3898C690.277 87.7545 690.595 88.035 690.941 88.035C691.317 88.035 691.605 87.7545 691.605 87.3898C691.605 87.0532 691.317 86.7446 690.941 86.7446C690.595 86.7446 690.277 87.0532 690.277 87.3898Z" fill="white"/>
<path d="M721.178 116.142C721.178 117.489 722.304 118.555 723.69 118.555C725.076 118.555 726.174 117.489 726.174 116.142C726.174 114.796 725.076 113.702 723.69 113.702C722.304 113.702 721.178 114.796 721.178 116.142Z" fill="white"/>
<path d="M784.192 189.889C784.192 190.955 785.058 191.825 786.185 191.825C787.282 191.825 788.148 190.955 788.148 189.889C788.148 188.823 787.282 187.954 786.185 187.954C785.058 187.954 784.192 188.823 784.192 189.889Z" fill="white"/>
<path d="M826.209 272.837C826.209 273.51 826.786 274.071 827.479 274.071C828.172 274.071 828.75 273.51 828.75 272.837C828.75 272.164 828.172 271.603 827.479 271.603C826.786 271.603 826.209 272.164 826.209 272.837Z" fill="white"/>
<path d="M840.706 315.054C840.706 315.699 841.255 316.26 841.948 316.26C842.641 316.26 843.189 315.699 843.189 315.054C843.189 314.381 842.641 313.848 841.948 313.848C841.255 313.848 840.706 314.381 840.706 315.054Z" fill="white"/>
<path d="M850.584 394.243C850.584 394.635 850.931 394.972 851.335 394.972C851.768 394.972 852.086 394.635 852.086 394.243C852.086 393.85 851.768 393.513 851.335 393.513C850.931 393.513 850.584 393.85 850.584 394.243Z" fill="white"/>
<path d="M838.512 434.973C838.512 435.759 839.176 436.404 839.985 436.404C840.822 436.404 841.486 435.759 841.486 434.973C841.486 434.16 840.822 433.514 839.985 433.514C839.176 433.514 838.512 434.16 838.512 434.973Z" fill="white"/>
<path d="M834.701 521.091C834.701 521.848 835.336 522.465 836.116 522.465C836.896 522.465 837.531 521.848 837.531 521.091C837.531 520.333 836.896 519.716 836.116 519.716C835.336 519.716 834.701 520.333 834.701 521.091Z" fill="white"/>
<path d="M818.385 552.228C818.385 552.929 818.963 553.49 819.685 553.49C820.407 553.49 820.984 552.929 820.984 552.228C820.984 551.554 820.407 550.965 819.685 550.965C818.963 550.965 818.385 551.554 818.385 552.228Z" fill="white"/>
<path d="M735.992 688.921C735.992 689.623 736.569 690.156 737.263 690.156C737.956 690.156 738.533 689.623 738.533 688.921C738.533 688.248 737.956 687.687 737.263 687.687C736.569 687.687 735.992 688.248 735.992 688.921Z" fill="white"/>
<path d="M688.372 715.654C688.372 717.085 689.556 718.235 691.029 718.235C692.502 718.235 693.686 717.085 693.686 715.654C693.686 714.224 692.502 713.073 691.029 713.073C689.556 713.073 688.372 714.224 688.372 715.654Z" fill="white"/>
<path d="M654.12 737.871C654.12 738.376 654.524 738.796 655.044 738.796C655.535 738.796 655.968 738.376 655.968 737.871C655.968 737.394 655.535 736.973 655.044 736.973C654.524 736.973 654.12 737.394 654.12 737.871Z" fill="white"/>
<path d="M555.125 780.677C555.125 781.126 555.5 781.491 555.962 781.491C556.424 781.491 556.8 781.126 556.8 780.677C556.8 780.228 556.424 779.864 555.962 779.864C555.5 779.864 555.125 780.228 555.125 780.677Z" fill="white"/>
<path d="M439.057 781.883C439.057 782.668 439.722 783.286 440.501 783.286C441.31 783.286 441.945 782.668 441.945 781.883C441.945 781.126 441.31 780.48 440.501 780.48C439.722 780.48 439.057 781.126 439.057 781.883Z" fill="white"/>
<path d="M384.247 790.832C384.247 792.346 385.488 793.553 387.048 793.553C388.579 793.553 389.82 792.346 389.82 790.832C389.82 789.345 388.579 788.139 387.048 788.139C385.488 788.139 384.247 789.345 384.247 790.832Z" fill="white"/>
<path d="M474.609 801.772C474.609 802.725 475.418 803.483 476.4 803.483C477.382 803.483 478.19 802.725 478.19 801.772C478.19 800.79 477.382 800.032 476.4 800.032C475.418 800.032 474.609 800.79 474.609 801.772Z" fill="white"/>
<path d="M280.773 762.949C280.773 763.874 281.553 764.632 282.506 764.632C283.459 764.632 284.238 763.874 284.238 762.949C284.238 762.023 283.459 761.266 282.506 761.266C281.553 761.266 280.773 762.023 280.773 762.949Z" fill="white"/>
<path d="M191.651 712.484C191.651 713.41 192.431 714.167 193.384 714.167C194.366 714.167 195.146 713.41 195.146 712.484C195.146 711.559 194.366 710.801 193.384 710.801C192.431 710.801 191.651 711.559 191.651 712.484Z" fill="white"/>
<path d="M154.341 676.466C154.341 676.859 154.659 677.168 155.063 677.168C155.467 677.168 155.785 676.859 155.785 676.466C155.785 676.074 155.467 675.765 155.063 675.765C154.659 675.765 154.341 676.074 154.341 676.466Z" fill="white"/>
<path d="M143.134 665.919C143.134 666.508 143.625 666.957 144.203 666.957C144.809 666.957 145.271 666.508 145.271 665.919C145.271 665.358 144.809 664.881 144.203 664.881C143.625 664.881 143.134 665.358 143.134 665.919Z" fill="white"/>
<path d="M107.499 623.057C107.499 624.319 108.539 625.329 109.839 625.329C111.138 625.329 112.178 624.319 112.178 623.057C112.178 621.795 111.138 620.785 109.839 620.785C108.539 620.785 107.499 621.795 107.499 623.057Z" fill="white"/>
<path d="M56.9316 517.893C56.9316 518.229 57.1915 518.482 57.538 518.482C57.8846 518.482 58.1445 518.229 58.1445 517.893C58.1445 517.556 57.8846 517.304 57.538 517.304C57.1915 517.304 56.9316 517.556 56.9316 517.893Z" fill="white"/>
<path d="M424.043 546.73C424.043 547.459 424.678 548.076 425.458 548.076C426.238 548.076 426.873 547.459 426.873 546.73C426.873 545.972 426.238 545.355 425.458 545.355C424.678 545.355 424.043 545.972 424.043 546.73Z" fill="white"/>
<path d="M541.665 590.237C541.665 590.798 542.156 591.275 542.733 591.275C543.311 591.275 543.802 590.798 543.802 590.237C543.802 589.676 543.311 589.199 542.733 589.199C542.156 589.199 541.665 589.676 541.665 590.237Z" fill="white"/>
<path d="M533.986 486.7C533.986 487.345 534.534 487.906 535.228 487.906C535.892 487.906 536.44 487.345 536.44 486.7C536.44 486.026 535.892 485.493 535.228 485.493C534.534 485.493 533.986 486.026 533.986 486.7Z" fill="white"/>
<path d="M104.207 369.557C104.207 370.399 104.929 371.1 105.824 371.1C106.719 371.1 107.412 370.399 107.412 369.557C107.412 368.688 106.719 367.987 105.824 367.987C104.929 367.987 104.207 368.688 104.207 369.557Z" fill="white"/>
<path d="M459.101 471.552C459.101 472.506 459.91 473.319 460.892 473.319C461.902 473.319 462.711 472.506 462.711 471.552C462.711 470.57 461.902 469.785 460.892 469.785C459.91 469.785 459.101 470.57 459.101 471.552Z" fill="white"/>
<path d="M337.606 450.345C337.606 451.243 338.356 451.972 339.281 451.972C340.234 451.972 340.984 451.243 340.984 450.345C340.984 449.448 340.234 448.718 339.281 448.718C338.356 448.718 337.606 449.448 337.606 450.345Z" fill="white"/>
<path d="M396.287 403.332C396.287 404.061 396.893 404.65 397.673 404.65C398.424 404.65 399.03 404.061 399.03 403.332C399.03 402.602 398.424 401.985 397.673 401.985C396.893 401.985 396.287 402.602 396.287 403.332Z" fill="white"/>
<path d="M333.014 416.403C333.014 417.301 333.765 418.002 334.66 418.002C335.584 418.002 336.335 417.301 336.335 416.403C336.335 415.506 335.584 414.776 334.66 414.776C333.765 414.776 333.014 415.506 333.014 416.403Z" fill="white"/>
<path d="M517.319 347.902C517.319 349.164 518.388 350.174 519.687 350.174C520.987 350.174 522.026 349.164 522.026 347.902C522.026 346.64 520.987 345.63 519.687 345.63C518.388 345.63 517.319 346.64 517.319 347.902Z" fill="white"/>
<path d="M398.34 309.444C398.34 309.64 398.514 309.836 398.716 309.836C398.947 309.836 399.12 309.64 399.12 309.444C399.12 309.219 398.947 309.051 398.716 309.051C398.514 309.051 398.34 309.219 398.34 309.444Z" fill="white"/>
<path d="M435.88 285.039C435.88 285.656 436.4 286.161 437.035 286.161C437.671 286.161 438.19 285.656 438.19 285.039C438.19 284.422 437.671 283.917 437.035 283.917C436.4 283.917 435.88 284.422 435.88 285.039Z" fill="white"/>
<path d="M383.699 288.209C383.699 289.387 384.681 290.341 385.894 290.341C387.078 290.341 388.06 289.387 388.06 288.209C388.06 287.059 387.078 286.105 385.894 286.105C384.681 286.105 383.699 287.059 383.699 288.209Z" fill="white"/>
<path d="M605.865 120.098C605.865 120.462 606.183 120.771 606.558 120.771C606.963 120.771 607.28 120.462 607.28 120.098C607.28 119.705 606.963 119.396 606.558 119.396C606.183 119.396 605.865 119.705 605.865 120.098Z" fill="white"/>
<path d="M575.714 100.91C575.714 101.78 576.436 102.481 577.36 102.481C578.256 102.481 578.978 101.78 578.978 100.91C578.978 100.013 578.256 99.3115 577.36 99.3115C576.436 99.3115 575.714 100.013 575.714 100.91Z" fill="white"/>
<path d="M589.98 89.5498C589.98 90.6158 590.875 91.4853 591.944 91.4853C593.041 91.4853 593.937 90.6158 593.937 89.5498C593.937 88.4839 593.041 87.6143 591.944 87.6143C590.875 87.6143 589.98 88.4839 589.98 89.5498Z" fill="white"/>
<path d="M450.726 228.375C450.726 229.441 451.621 230.311 452.718 230.311C453.816 230.311 454.711 229.441 454.711 228.375C454.711 227.31 453.816 226.44 452.718 226.44C451.621 226.44 450.726 227.31 450.726 228.375Z" fill="white"/>
<path d="M226.971 680.927C226.971 681.516 227.462 681.993 228.069 681.993C228.675 681.993 229.166 681.516 229.166 680.927C229.166 680.337 228.675 679.861 228.069 679.861C227.462 679.861 226.971 680.337 226.971 680.927Z" fill="white"/>
<path d="M152.723 557.641C152.723 558.174 153.185 558.623 153.733 558.623C154.311 558.623 154.744 558.174 154.744 557.641C154.744 557.108 154.311 556.66 153.733 556.66C153.185 556.66 152.723 557.108 152.723 557.641Z" fill="white"/>
<path d="M126.532 554.331C126.532 555.565 127.543 556.575 128.814 556.575C130.084 556.575 131.124 555.565 131.124 554.331C131.124 553.097 130.084 552.115 128.814 552.115C127.543 552.115 126.532 553.097 126.532 554.331Z" fill="white"/>
<path d="M211.031 510.936C211.031 511.778 211.753 512.479 212.62 512.479C213.486 512.479 214.208 511.778 214.208 510.936C214.208 510.095 213.486 509.393 212.62 509.393C211.753 509.393 211.031 510.095 211.031 510.936Z" fill="white"/>
<path d="M355.398 463.529C355.398 464.707 356.38 465.661 357.564 465.661C358.777 465.661 359.759 464.707 359.759 463.529C359.759 462.379 358.777 461.425 357.564 461.425C356.38 461.425 355.398 462.379 355.398 463.529Z" fill="white"/>
<path d="M239.014 478.172C239.014 479.154 239.823 479.939 240.833 479.939C241.873 479.939 242.682 479.154 242.682 478.172C242.682 477.162 241.873 476.377 240.833 476.377C239.823 476.377 239.014 477.162 239.014 478.172Z" fill="white"/>
<path d="M110.273 440.051C110.273 440.78 110.85 441.341 111.601 441.341C112.323 441.341 112.93 440.78 112.93 440.051C112.93 439.349 112.323 438.76 111.601 438.76C110.85 438.76 110.273 439.349 110.273 440.051Z" fill="white"/>
<path d="M368.219 431.27C368.219 431.551 368.479 431.803 368.768 431.803C369.085 431.803 369.316 431.551 369.316 431.27C369.316 430.989 369.085 430.737 368.768 430.737C368.479 430.737 368.219 430.989 368.219 431.27Z" fill="white"/>
<path d="M173.72 367.874C173.72 368.996 174.644 369.894 175.77 369.894C176.896 369.894 177.82 368.996 177.82 367.874C177.82 366.78 176.896 365.883 175.77 365.883C174.644 365.883 173.72 366.78 173.72 367.874Z" fill="white"/>
<path d="M270.754 362.517C270.754 362.965 271.13 363.33 271.621 363.33C272.083 363.33 272.458 362.965 272.458 362.517C272.458 362.068 272.083 361.703 271.621 361.703C271.13 361.703 270.754 362.068 270.754 362.517Z" fill="white"/>
<path d="M136.899 245.964C136.899 246.861 137.649 247.563 138.574 247.563C139.498 247.563 140.22 246.861 140.22 245.964C140.22 245.066 139.498 244.337 138.574 244.337C137.649 244.337 136.899 245.066 136.899 245.964Z" fill="white"/>
<path d="M201.299 295.979C201.299 296.821 202.021 297.522 202.887 297.522C203.754 297.522 204.476 296.821 204.476 295.979C204.476 295.138 203.754 294.465 202.887 294.465C202.021 294.465 201.299 295.138 201.299 295.979Z" fill="white"/>
<path d="M276.412 296.708C276.412 297.185 276.816 297.578 277.336 297.578C277.827 297.578 278.231 297.185 278.231 296.708C278.231 296.232 277.827 295.839 277.336 295.839C276.816 295.839 276.412 296.232 276.412 296.708Z" fill="white"/>
<path d="M286.78 313.904C286.78 314.914 287.617 315.727 288.686 315.727C289.725 315.727 290.592 314.914 290.592 313.904C290.592 312.866 289.725 312.052 288.686 312.052C287.617 312.052 286.78 312.866 286.78 313.904Z" fill="white"/>
<path d="M209.616 197.435C209.616 198.922 210.858 200.128 212.389 200.128C213.919 200.128 215.161 198.922 215.161 197.435C215.161 195.948 213.919 194.742 212.389 194.742C210.858 194.742 209.616 195.948 209.616 197.435Z" fill="white"/>
<path d="M791.931 417.778C791.931 418.479 792.509 419.012 793.202 419.012C793.895 419.012 794.473 418.479 794.473 417.778C794.473 417.104 793.895 416.543 793.202 416.543C792.509 416.543 791.931 417.104 791.931 417.778Z" fill="white"/>
<path d="M635.841 414.72C635.841 415.253 636.303 415.702 636.852 415.702C637.429 415.702 637.862 415.253 637.862 414.72C637.862 414.159 637.429 413.739 636.852 413.739C636.303 413.739 635.841 414.159 635.841 414.72Z" fill="white"/>
<path d="M710.029 391.101C710.029 391.662 710.491 392.139 711.098 392.139C711.704 392.139 712.195 391.662 712.195 391.101C712.195 390.512 711.704 390.035 711.098 390.035C710.491 390.035 710.029 390.512 710.029 391.101Z" fill="white"/>
<path d="M769.925 342.685C769.925 344.059 771.08 345.153 772.466 345.153C773.882 345.153 775.008 344.059 775.008 342.685C775.008 341.338 773.882 340.244 772.466 340.244C771.08 340.244 769.925 341.338 769.925 342.685Z" fill="white"/>
<path d="M692.269 310.51C692.269 310.987 692.702 311.38 693.193 311.38C693.713 311.38 694.117 310.987 694.117 310.51C694.117 310.005 693.713 309.612 693.193 309.612C692.702 309.612 692.269 310.005 692.269 310.51Z" fill="white"/>
<path d="M780.784 267.872C780.784 268.545 781.333 269.078 782.026 269.078C782.719 269.078 783.268 268.545 783.268 267.872C783.268 267.198 782.719 266.666 782.026 266.666C781.333 266.666 780.784 267.198 780.784 267.872Z" fill="white"/>
<path d="M638.728 276.988C638.728 277.409 639.103 277.774 639.565 277.774C639.999 277.774 640.374 277.409 640.374 276.988C640.374 276.539 639.999 276.203 639.565 276.203C639.103 276.203 638.728 276.539 638.728 276.988Z" fill="white"/>
<path d="M746.676 235.052C746.676 236.005 747.485 236.763 748.467 236.763C749.449 236.763 750.229 236.005 750.229 235.052C750.229 234.098 749.449 233.312 748.467 233.312C747.485 233.312 746.676 234.098 746.676 235.052Z" fill="white"/>
<path d="M667.461 235.921C667.461 236.847 668.24 237.604 669.222 237.604C670.175 237.604 670.955 236.847 670.955 235.921C670.955 234.996 670.175 234.238 669.222 234.238C668.24 234.238 667.461 234.996 667.461 235.921Z" fill="white"/>
<path d="M676.473 34.8777C676.473 35.579 677.108 36.1681 677.83 36.1681C678.581 36.1681 679.188 35.579 679.188 34.8777C679.188 34.1484 678.581 33.5593 677.83 33.5593C677.108 33.5593 676.473 34.1484 676.473 34.8777Z" fill="white"/>
<path d="M865.601 224.729C865.601 225.991 866.669 227.057 867.998 227.057C869.326 227.057 870.395 225.991 870.395 224.729C870.395 223.438 869.326 222.4 867.998 222.4C866.669 222.4 865.601 223.438 865.601 224.729Z" fill="white"/>
<path d="M320.021 181.979C320.021 182.484 320.454 182.904 320.945 182.904C321.465 182.904 321.898 182.484 321.898 181.979C321.898 181.502 321.465 181.081 320.945 181.081C320.454 181.081 320.021 181.502 320.021 181.979Z" fill="white"/>
<path d="M335.298 190.338C335.298 190.843 335.731 191.236 336.251 191.236C336.77 191.236 337.175 190.843 337.175 190.338C337.175 189.833 336.77 189.412 336.251 189.412C335.731 189.412 335.298 189.833 335.298 190.338Z" fill="white"/>
<path d="M379.482 21.1605C379.482 21.5532 379.8 21.8898 380.204 21.8898C380.637 21.8898 380.955 21.5532 380.955 21.1605C380.955 20.7678 380.637 20.4592 380.204 20.4592C379.8 20.4592 379.482 20.7678 379.482 21.1605Z" fill="white"/>
<path d="M402.095 9.68766C402.095 10.2206 402.528 10.6414 403.077 10.6414C403.625 10.6414 404.059 10.2206 404.059 9.68766C404.059 9.18273 403.625 8.76196 403.077 8.76196C402.528 8.76196 402.095 9.18273 402.095 9.68766Z" fill="white"/>
<path d="M413.76 127.559C413.76 128.148 414.251 128.597 414.829 128.597C415.406 128.597 415.897 128.148 415.897 127.559C415.897 126.998 415.406 126.55 414.829 126.55C414.251 126.55 413.76 126.998 413.76 127.559Z" fill="white"/>
<path d="M443.449 82.8735C443.449 83.6589 444.113 84.3041 444.922 84.3041C445.73 84.3041 446.395 83.6589 446.395 82.8735C446.395 82.0881 445.73 81.4429 444.922 81.4429C444.113 81.4429 443.449 82.0881 443.449 82.8735Z" fill="white"/>
<path d="M456.76 125.484C456.76 125.652 456.905 125.792 457.078 125.792C457.251 125.792 457.396 125.652 457.396 125.484C457.396 125.316 457.251 125.175 457.078 125.175C456.905 125.175 456.76 125.316 456.76 125.484Z" fill="white"/>
<path d="M489.826 65.3137C489.826 66.3797 490.693 67.2493 491.79 67.2493C492.888 67.2493 493.754 66.3797 493.754 65.3137C493.754 64.2758 492.888 63.4062 491.79 63.4062C490.693 63.4062 489.826 64.2758 489.826 65.3137Z" fill="white"/>
<path d="M531.904 139.173C531.904 140.547 533.059 141.669 534.474 141.669C535.918 141.669 537.073 140.547 537.073 139.173C537.073 137.77 535.918 136.648 534.474 136.648C533.059 136.648 531.904 137.77 531.904 139.173Z" fill="white"/>
<path d="M547.037 628.779C547.037 629.481 547.615 630.014 548.308 630.014C549.03 630.014 549.607 629.481 549.607 628.779C549.607 628.106 549.03 627.545 548.308 627.545C547.615 627.545 547.037 628.106 547.037 628.779Z" fill="white"/>
<path d="M643.551 746.342C643.551 746.847 643.985 747.268 644.533 747.268C645.053 747.268 645.486 746.847 645.486 746.342C645.486 745.809 645.053 745.389 644.533 745.389C643.985 745.389 643.551 745.809 643.551 746.342Z" fill="white"/>
<path d="M628.129 602.636C628.129 603.701 629.024 604.571 630.122 604.571C631.219 604.571 632.114 603.701 632.114 602.636C632.114 601.57 631.219 600.7 630.122 600.7C629.024 600.7 628.129 601.57 628.129 602.636Z" fill="white"/>
<path d="M359.47 693.718C359.47 694.531 360.163 695.205 361.001 695.205C361.867 695.205 362.531 694.531 362.531 693.718C362.531 692.876 361.867 692.203 361.001 692.203C360.163 692.203 359.47 692.876 359.47 693.718Z" fill="white"/>
<path d="M496.786 733.046C496.786 733.832 497.451 734.449 498.23 734.449C499.01 734.449 499.646 733.832 499.646 733.046C499.646 732.289 499.01 731.672 498.23 731.672C497.451 731.672 496.786 732.289 496.786 733.046Z" fill="white"/>
<path d="M285.219 651.221C285.219 651.922 285.796 652.455 286.518 652.455C287.211 652.455 287.789 651.922 287.789 651.221C287.789 650.547 287.211 649.986 286.518 649.986C285.796 649.986 285.219 650.547 285.219 651.221Z" fill="white"/>
<path d="M320.137 616.24C320.137 617.166 320.917 617.924 321.87 617.924C322.823 617.924 323.603 617.166 323.603 616.24C323.603 615.315 322.823 614.557 321.87 614.557C320.917 614.557 320.137 615.315 320.137 616.24Z" fill="white"/>
<path d="M267.864 633.408C267.864 634.193 268.499 634.839 269.307 634.839C270.116 634.839 270.78 634.193 270.78 633.408C270.78 632.622 270.116 632.005 269.307 632.005C268.499 632.005 267.864 632.622 267.864 633.408Z" fill="white"/>
<path d="M570.197 764.351C570.197 764.996 570.717 765.501 571.381 765.501C572.046 765.501 572.565 764.996 572.565 764.351C572.565 763.706 572.046 763.201 571.381 763.201C570.717 763.201 570.197 763.706 570.197 764.351Z" fill="white"/>
<path d="M590.529 821.464C590.529 821.744 590.76 821.997 591.049 821.997C591.337 821.997 591.568 821.744 591.568 821.464C591.568 821.183 591.337 820.959 591.049 820.959C590.76 820.959 590.529 821.183 590.529 821.464Z" fill="white"/>
<path d="M599.54 776.89C599.54 777.844 600.319 778.63 601.301 778.63C602.283 778.63 603.092 777.844 603.092 776.89C603.092 775.937 602.283 775.179 601.301 775.179C600.319 775.179 599.54 775.937 599.54 776.89Z" fill="white"/>
<path d="M563.355 631.416C563.355 632.454 564.222 633.295 565.29 633.295C566.359 633.295 567.196 632.454 567.196 631.416C567.196 630.378 566.359 629.537 565.29 629.537C564.222 629.537 563.355 630.378 563.355 631.416Z" fill="white"/>
<path d="M635.002 673.101C635.002 674.391 636.1 675.457 637.428 675.457C638.785 675.457 639.883 674.391 639.883 673.101C639.883 671.782 638.785 670.716 637.428 670.716C636.1 670.716 635.002 671.782 635.002 673.101Z" fill="white"/>
<path d="M773.217 648.275C773.217 649.425 774.17 650.351 775.354 650.351C776.567 650.351 777.52 649.425 777.52 648.275C777.52 647.125 776.567 646.171 775.354 646.171C774.17 646.171 773.217 647.125 773.217 648.275Z" fill="white"/>
<path d="M743.126 597.137C743.126 597.867 743.733 598.484 744.512 598.484C745.263 598.484 745.898 597.867 745.898 597.137C745.898 596.38 745.263 595.791 744.512 595.791C743.733 595.791 743.126 596.38 743.126 597.137Z" fill="white"/>
<path d="M813.879 263.636C813.879 264.253 814.399 264.758 815.005 264.758C815.64 264.758 816.16 264.253 816.16 263.636C816.16 263.019 815.64 262.514 815.005 262.514C814.399 262.514 813.879 263.019 813.879 263.636Z" fill="white"/>
<path d="M720.659 501.847C720.659 502.408 721.121 502.829 721.669 502.829C722.247 502.829 722.709 502.408 722.709 501.847C722.709 501.286 722.247 500.837 721.669 500.837C721.121 500.837 720.659 501.286 720.659 501.847Z" fill="white"/>
<path d="M640.056 38.3563C640.056 39.2259 640.778 39.9271 641.673 39.9271C642.568 39.9271 643.29 39.2259 643.29 38.3563C643.29 37.4867 642.568 36.7854 641.673 36.7854C640.778 36.7854 640.056 37.4867 640.056 38.3563Z" fill="white"/>
<path d="M233.728 8.87438C233.728 9.23904 234.045 9.54761 234.421 9.54761C234.825 9.54761 235.143 9.23904 235.143 8.87438C235.143 8.48166 234.825 8.1731 234.421 8.1731C234.045 8.1731 233.728 8.48166 233.728 8.87438Z" fill="white"/>
<path d="M240.084 26.9952C240.084 27.6685 240.633 28.2014 241.326 28.2014C242.019 28.2014 242.597 27.6685 242.597 26.9952C242.597 26.322 242.019 25.761 241.326 25.761C240.633 25.761 240.084 26.322 240.084 26.9952Z" fill="white"/>
<path d="M220.012 80.7415C220.012 81.1623 220.359 81.4989 220.792 81.4989C221.225 81.4989 221.601 81.1623 221.601 80.7415C221.601 80.3207 221.225 79.9841 220.792 79.9841C220.359 79.9841 220.012 80.3207 220.012 80.7415Z" fill="white"/>
<path d="M195.234 60.9095C195.234 62.2279 196.331 63.2938 197.717 63.2938C199.074 63.2938 200.172 62.2279 200.172 60.9095C200.172 59.563 199.074 58.4971 197.717 58.4971C196.331 58.4971 195.234 59.563 195.234 60.9095Z" fill="white"/>
<path d="M209.037 42.9847C209.037 43.9946 209.875 44.808 210.886 44.808C211.925 44.808 212.763 43.9946 212.763 42.9847C212.763 41.9749 211.925 41.1614 210.886 41.1614C209.875 41.1614 209.037 41.9749 209.037 42.9847Z" fill="white"/>
<path d="M195.117 1.83359C195.117 2.70318 195.839 3.37641 196.706 3.37641C197.601 3.37641 198.294 2.70318 198.294 1.83359C198.294 0.992053 197.601 0.290771 196.706 0.290771C195.839 0.290771 195.117 0.992053 195.117 1.83359Z" fill="white"/>
<path d="M235.866 5.39626C235.866 6.46221 236.732 7.33179 237.83 7.33179C238.927 7.33179 239.822 6.46221 239.822 5.39626C239.822 4.33031 238.927 3.48877 237.83 3.48877C236.732 3.48877 235.866 4.33031 235.866 5.39626Z" fill="white"/>
<path d="M646.871 22.5913C646.871 23.1804 647.362 23.6573 647.968 23.6573C648.575 23.6573 649.095 23.1804 649.095 22.5913C649.095 21.9742 648.575 21.4973 647.968 21.4973C647.362 21.4973 646.871 21.9742 646.871 22.5913Z" fill="white"/>
<path d="M869.095 253.706C869.095 254.407 869.672 254.996 870.394 254.996C871.145 254.996 871.723 254.407 871.723 253.706C871.723 253.005 871.145 252.416 870.394 252.416C869.672 252.416 869.095 253.005 869.095 253.706Z" fill="white"/>
<path d="M0.357735 324.9C0.357735 326.05 1.31071 326.976 2.49475 326.976C3.67879 326.976 4.63184 326.05 4.63184 324.9C4.63184 323.75 3.67879 322.824 2.49475 322.824C1.31071 322.824 0.357735 323.75 0.357735 324.9Z" fill="white"/>
<path d="M74.3464 316.204C74.3464 317.41 75.3572 318.392 76.599 318.392C77.8408 318.392 78.8516 317.41 78.8516 316.204C78.8516 314.998 77.8408 314.016 76.599 314.016C75.3572 314.016 74.3464 314.998 74.3464 316.204Z" fill="white"/>
<path d="M41.6266 447.764C41.6266 448.55 42.2908 449.195 43.0994 449.195C43.908 449.195 44.5723 448.55 44.5723 447.764C44.5723 446.979 43.908 446.334 43.0994 446.334C42.2908 446.334 41.6266 446.979 41.6266 447.764Z" fill="white"/>
<path d="M27.7046 362.32C27.7046 362.853 28.1378 363.302 28.7153 363.302C29.264 363.302 29.6973 362.853 29.6973 362.32C29.6973 361.787 29.264 361.338 28.7153 361.338C28.1378 361.338 27.7046 361.787 27.7046 362.32Z" fill="white"/>
<path d="M33.339 357.72C33.339 358.085 33.6278 358.365 34.0032 358.365C34.3786 358.365 34.6963 358.085 34.6963 357.72C34.6963 357.355 34.3786 357.047 34.0032 357.047C33.6278 357.047 33.339 357.355 33.339 357.72Z" fill="white"/>
<path d="M18.5534 355.504C18.5534 356.037 18.9866 356.458 19.5353 356.458C20.0551 356.458 20.4883 356.037 20.4883 355.504C20.4883 354.999 20.0551 354.578 19.5353 354.578C18.9866 354.578 18.5534 354.999 18.5534 355.504Z" fill="white"/>
<path d="M22.9143 345.125C22.9143 345.49 23.203 345.77 23.5785 345.77C23.925 345.77 24.2139 345.49 24.2139 345.125C24.2139 344.788 23.925 344.508 23.5785 344.508C23.203 344.508 22.9143 344.788 22.9143 345.125Z" fill="white"/>
<path d="M501.869 208.908C501.869 209.974 502.764 210.844 503.862 210.844C504.988 210.844 505.854 209.974 505.854 208.908C505.854 207.814 504.988 206.945 503.862 206.945C502.764 206.945 501.869 207.814 501.869 208.908Z" fill="white"/>
<path d="M482.664 150.224C482.664 151.206 483.473 151.992 484.484 151.992C485.495 151.992 486.332 151.206 486.332 150.224C486.332 149.215 485.495 148.429 484.484 148.429C483.473 148.429 482.664 149.215 482.664 150.224Z" fill="white"/>
<path d="M569.332 264.702C569.332 266.301 570.689 267.591 572.335 267.591C573.981 267.591 575.31 266.301 575.31 264.702C575.31 263.103 573.981 261.785 572.335 261.785C570.689 261.785 569.332 263.103 569.332 264.702Z" fill="white"/>
<path d="M605.17 299.373C605.17 299.598 605.372 299.766 605.603 299.766C605.806 299.766 606.008 299.598 606.008 299.373C606.008 299.149 605.806 298.98 605.603 298.98C605.372 298.98 605.17 299.149 605.17 299.373Z" fill="white"/>
<path d="M617.01 207.057C617.01 207.365 617.27 207.618 617.588 207.618C617.934 207.618 618.194 207.365 618.194 207.057C618.194 206.72 617.934 206.468 617.588 206.468C617.27 206.468 617.01 206.72 617.01 207.057Z" fill="white"/>
<path d="M652.068 305.264C652.068 305.685 652.415 306.022 652.848 306.022C653.281 306.022 653.628 305.685 653.628 305.264C653.628 304.843 653.281 304.507 652.848 304.507C652.415 304.507 652.068 304.843 652.068 305.264Z" fill="white"/>
<path d="M642.714 88.035C642.714 89.0448 643.551 89.8583 644.591 89.8583C645.63 89.8583 646.468 89.0448 646.468 88.035C646.468 87.0252 645.63 86.2117 644.591 86.2117C643.551 86.2117 642.714 87.0252 642.714 88.035Z" fill="white"/>
<path d="M698.97 167.449C698.97 168.907 700.211 170.085 701.713 170.085C703.215 170.085 704.428 168.907 704.428 167.449C704.428 165.99 703.215 164.812 701.713 164.812C700.211 164.812 698.97 165.99 698.97 167.449Z" fill="white"/>
<path d="M104.496 175.723C104.496 176.453 105.074 177.014 105.825 177.014C106.547 177.014 107.153 176.453 107.153 175.723C107.153 175.022 106.547 174.433 105.825 174.433C105.074 174.433 104.496 175.022 104.496 175.723Z" fill="white"/>
<path d="M286.117 249.274C286.117 249.835 286.579 250.284 287.157 250.284C287.734 250.284 288.196 249.835 288.196 249.274C288.196 248.713 287.734 248.264 287.157 248.264C286.579 248.264 286.117 248.713 286.117 249.274Z" fill="white"/>
<path d="M324.381 254.8C324.381 255.361 324.843 255.81 325.421 255.81C326.027 255.81 326.489 255.361 326.489 254.8C326.489 254.211 326.027 253.762 325.421 253.762C324.843 253.762 324.381 254.211 324.381 254.8Z" fill="white"/>
<path d="M377.661 679.496C377.661 679.804 377.892 680.029 378.21 680.029C378.499 680.029 378.759 679.804 378.759 679.496C378.759 679.215 378.499 678.963 378.21 678.963C377.892 678.963 377.661 679.215 377.661 679.496Z" fill="white"/>
<path d="M393.604 664.461C393.604 665.218 394.21 665.807 394.99 665.807C395.741 665.807 396.376 665.218 396.376 664.461C396.376 663.731 395.741 663.114 394.99 663.114C394.21 663.114 393.604 663.731 393.604 664.461Z" fill="white"/>
<path d="M251.749 125.119C251.749 125.96 252.471 126.661 253.337 126.661C254.233 126.661 254.926 125.96 254.926 125.119C254.926 124.249 254.233 123.576 253.337 123.576C252.471 123.576 251.749 124.249 251.749 125.119Z" fill="white"/>
<path d="M832.302 225.037C832.302 225.43 832.619 225.739 833.024 225.739C833.399 225.739 833.717 225.43 833.717 225.037C833.717 224.673 833.399 224.364 833.024 224.364C832.619 224.364 832.302 224.673 832.302 225.037Z" fill="white"/>
<path d="M849.426 255.641C849.426 256.286 849.946 256.791 850.582 256.791C851.246 256.791 851.766 256.286 851.766 255.641C851.766 254.996 851.246 254.491 850.582 254.491C849.946 254.491 849.426 254.996 849.426 255.641Z" fill="white"/>
<path d="M134.502 116.816C133.693 117.012 133.231 117.798 133.433 118.583C133.636 119.34 134.444 119.817 135.253 119.621C136.033 119.425 136.495 118.639 136.292 117.854C136.09 117.096 135.282 116.619 134.502 116.816Z" fill="white"/>
<path d="M106.055 125.792C104.958 126.073 104.265 127.195 104.554 128.261C104.842 129.355 105.998 130 107.095 129.719C108.221 129.439 108.885 128.345 108.597 127.251C108.308 126.185 107.182 125.512 106.055 125.792Z" fill="white"/>
<path d="M126.761 105.651C126.01 105.848 125.548 106.605 125.721 107.362C125.923 108.12 126.732 108.569 127.511 108.372C128.262 108.176 128.753 107.419 128.551 106.661C128.349 105.904 127.54 105.455 126.761 105.651Z" fill="white"/>
<path d="M99.5582 109.129C99.2694 109.186 99.0961 109.466 99.1827 109.747C99.2405 109.999 99.5293 110.167 99.8181 110.111C100.107 110.027 100.251 109.747 100.194 109.494C100.107 109.214 99.847 109.045 99.5582 109.129Z" fill="white"/>
<path d="M347.281 171.488C347.281 172.217 347.888 172.806 348.639 172.806C349.39 172.806 349.996 172.217 349.996 171.488C349.996 170.786 349.39 170.197 348.639 170.197C347.888 170.197 347.281 170.786 347.281 171.488Z" fill="white"/>
<path d="M574.096 660.253C574.096 660.786 574.558 661.235 575.107 661.235C575.656 661.235 576.089 660.786 576.089 660.253C576.089 659.72 575.656 659.299 575.107 659.299C574.558 659.299 574.096 659.72 574.096 660.253Z" fill="white"/>
<path d="M589.663 668.612C589.663 668.977 589.981 669.285 590.385 669.285C590.79 669.285 591.107 668.977 591.107 668.612C591.107 668.219 590.79 667.911 590.385 667.911C589.981 667.911 589.663 668.219 589.663 668.612Z" fill="white"/>
<path d="M601.446 649.762C601.446 650.491 602.023 651.052 602.774 651.052C603.496 651.052 604.103 650.491 604.103 649.762C604.103 649.061 603.496 648.471 602.774 648.471C602.023 648.471 601.446 649.061 601.446 649.762Z" fill="white"/>
<path d="M723.69 116.142L786.184 189.889L748.468 235.052L723.69 116.142Z" stroke="white" stroke-linecap="round" stroke-linejoin="round"/>
<path d="M819.684 552.227L775.354 648.275L744.512 597.137L819.684 552.227Z" stroke="white" stroke-linecap="round" stroke-linejoin="round"/>
<path d="M637.429 673.1L691.028 715.654L737.264 688.921L637.429 673.1Z" stroke="white" stroke-linecap="round" stroke-linejoin="round"/>
<path d="M282.505 762.949L193.385 712.484L286.52 651.22L282.505 762.949Z" stroke="white" stroke-linecap="round" stroke-linejoin="round"/>
<path d="M128.812 554.331L109.838 623.057L144.204 665.919L128.812 554.331Z" stroke="white" stroke-linecap="round" stroke-linejoin="round"/>
<path d="M43.0977 447.764L57.5372 517.893L111.599 440.05L43.0977 447.764Z" stroke="white" stroke-linecap="round" stroke-linejoin="round"/>
<path d="M333.679 22.395L285.48 39.1136L253.337 125.119L333.679 22.395Z" stroke="white" stroke-linecap="round" stroke-linejoin="round"/>
<path d="M576.032 29.3799L449.023 6.26562L491.792 65.3136L576.032 29.3799Z" stroke="white" stroke-linecap="round" stroke-linejoin="round"/>
<path d="M841.95 315.054L851.336 394.243L772.467 342.684L841.95 315.054Z" stroke="white" stroke-linecap="round" stroke-linejoin="round"/>
<path d="M839.986 434.973L836.117 521.091L793.202 417.778L839.986 434.973Z" stroke="white" stroke-linecap="round" stroke-linejoin="round"/>
<path d="M693.195 310.51L711.1 391.101L636.852 414.72L693.195 310.51Z" stroke="white" stroke-linecap="round" stroke-linejoin="round"/>
<path d="M175.913 106.381L105.823 175.723L212.387 197.435L175.913 106.381Z" stroke="white" stroke-linecap="round" stroke-linejoin="round"/>
<path d="M74.5492 238.923L48.2405 310.482L76.5996 316.204L74.5492 238.923Z" stroke="white" stroke-linecap="round" stroke-linejoin="round"/>
<path d="M793.203 417.778L841.95 315.054L851.336 394.243L793.203 417.778Z" stroke="white" stroke-linecap="round" stroke-linejoin="round"/>
<path d="M269.309 633.408L109.839 623.057L144.205 665.919L269.309 633.408Z" stroke="white" stroke-linecap="round" stroke-linejoin="round"/>
<path d="M321.867 616.24L269.307 633.408L286.519 651.22L321.867 616.24Z" stroke="white" stroke-linecap="round" stroke-linejoin="round"/>
<path d="M197.717 60.9096L220.791 80.7419L210.886 42.9849L197.717 60.9096Z" stroke="white" stroke-linecap="round" stroke-linejoin="round"/>
<path d="M237.828 5.39601L196.704 1.8335L241.322 26.9955L237.828 5.39601Z" stroke="white" stroke-linecap="round" stroke-linejoin="round"/>
<path d="M210.884 42.9847L237.828 5.396L241.322 26.9955L210.884 42.9847Z" stroke="white" stroke-linecap="round" stroke-linejoin="round"/>
<path d="M827.48 272.837L815.005 263.636L782.025 267.872L827.48 272.837Z" stroke="white" stroke-linecap="round" stroke-linejoin="round"/>
<path d="M772.467 342.684L815.006 263.636L782.026 267.872L772.467 342.684Z" stroke="white" stroke-linecap="round" stroke-linejoin="round"/>
<path d="M711.099 391.101L772.467 342.684L636.851 414.72L711.099 391.101Z" stroke="white" stroke-linecap="round" stroke-linejoin="round"/>
<path d="M870.395 253.706L867.998 224.729L850.584 255.641L870.395 253.706Z" stroke="white" stroke-linecap="round" stroke-linejoin="round"/>
<path d="M833.025 225.037L867.998 224.729L870.395 253.706L833.025 225.037Z" stroke="white" stroke-linecap="round" stroke-linejoin="round"/>
<path d="M106.576 127.756L134.877 118.218L99.6735 109.607L106.576 127.756Z" stroke="white" stroke-linecap="round" stroke-linejoin="round"/>
<path d="M127.137 106.998L134.877 118.218L106.576 127.756L127.137 106.998Z" stroke="white" stroke-linecap="round" stroke-linejoin="round"/>
<path d="M591.943 89.5496L606.556 120.097L577.359 100.91L591.943 89.5496Z" stroke="white" stroke-linecap="round" stroke-linejoin="round"/>
<path d="M641.674 38.3564L647.969 22.5916L677.83 34.878L641.674 38.3564Z" stroke="white" stroke-linecap="round" stroke-linejoin="round"/>
<path d="M23.5773 345.125L19.5342 355.504L28.7178 362.32L23.5773 345.125Z" stroke="white" stroke-linecap="round" stroke-linejoin="round"/>
<path d="M34.001 357.72L28.7161 362.32L19.5326 355.504L34.001 357.72Z" stroke="white" stroke-linecap="round" stroke-linejoin="round"/>
<path d="M202.885 295.979L175.768 367.874L271.617 362.517L202.885 295.979Z" stroke="white" stroke-linecap="round" stroke-linejoin="round"/>
<path d="M128.812 554.331L43.0997 447.765L57.5392 517.893L128.812 554.331Z" stroke="white" stroke-linecap="round" stroke-linejoin="round"/>
<path d="M425.457 546.729L460.891 471.552L535.226 486.7L425.457 546.729Z" stroke="white" stroke-linecap="round" stroke-linejoin="round"/>
<path d="M397.676 403.331L425.457 546.729L460.892 471.552L397.676 403.331Z" stroke="white" stroke-linecap="round" stroke-linejoin="round"/>
<path d="M721.668 501.848L793.201 417.778L711.098 391.101L721.668 501.848Z" stroke="white" stroke-linecap="round" stroke-linejoin="round"/>
<path d="M819.684 552.227L721.668 501.847L775.354 648.275L819.684 552.227Z" stroke="white" stroke-linecap="round" stroke-linejoin="round"/>
<path d="M721.67 501.847L744.514 597.137L630.124 602.635L721.67 501.847Z" stroke="white" stroke-linecap="round" stroke-linejoin="round"/>
<path d="M212.619 510.936L240.834 478.172L357.562 463.529L212.619 510.936Z" stroke="white" stroke-linecap="round" stroke-linejoin="round"/>
<path d="M269.309 633.408L240.834 478.172L212.619 510.936L269.309 633.408Z" stroke="white" stroke-linecap="round" stroke-linejoin="round"/>
<path d="M111.6 440.05L175.769 367.874L240.833 478.172L111.6 440.05Z" stroke="white" stroke-linecap="round" stroke-linejoin="round"/>
<path d="M548.308 628.779L565.289 631.416L542.735 590.237L548.308 628.779Z" stroke="white" stroke-linecap="round" stroke-linejoin="round"/>
<path d="M555.962 780.677L601.302 776.89L571.383 764.351L555.962 780.677Z" stroke="white" stroke-linecap="round" stroke-linejoin="round"/>
<path d="M575.106 660.253L590.383 668.612L602.772 649.762L575.106 660.253Z" stroke="white" stroke-linecap="round" stroke-linejoin="round"/>
<path d="M321.868 616.24L378.211 679.496L360.999 693.718L321.868 616.24Z" stroke="white" stroke-linecap="round" stroke-linejoin="round"/>
<path d="M397.675 403.331L519.689 347.902L636.851 414.72L397.675 403.331Z" stroke="white" stroke-linecap="round" stroke-linejoin="round"/>
<path d="M721.669 501.847L839.986 434.973L819.684 552.227L721.669 501.847Z" stroke="white" stroke-linecap="round" stroke-linejoin="round"/>
<path d="M57.5372 517.893L109.837 623.057L111.599 440.05L57.5372 517.893Z" stroke="white" stroke-linecap="round" stroke-linejoin="round"/>
<path d="M334.662 416.403L339.282 450.345L368.768 431.27L334.662 416.403Z" stroke="white" stroke-linecap="round" stroke-linejoin="round"/>
<path d="M287.153 249.274L277.335 296.708L325.418 254.8L287.153 249.274Z" stroke="white" stroke-linecap="round" stroke-linejoin="round"/>
<path d="M348.639 171.488L336.25 190.338L320.944 181.979L348.639 171.488Z" stroke="white" stroke-linecap="round" stroke-linejoin="round"/>
<path d="M285.478 39.1135L253.336 125.119L320.941 181.979L285.478 39.1135Z" stroke="white" stroke-linecap="round" stroke-linejoin="round"/>
<path d="M701.713 167.448L669.224 235.922L617.588 207.057L701.713 167.448Z" stroke="white" stroke-linecap="round" stroke-linejoin="round"/>
<path d="M657.122 66.4917L644.589 88.0351L690.939 87.3899L657.122 66.4917Z" stroke="white" stroke-linecap="round" stroke-linejoin="round"/>
<path d="M534.476 139.173L503.864 208.908L484.486 150.225L534.476 139.173Z" stroke="white" stroke-linecap="round" stroke-linejoin="round"/>
<path d="M403.075 9.68799L365.042 14.7092L380.203 21.161L403.075 9.68799Z" stroke="white" stroke-linecap="round" stroke-linejoin="round"/>
<path d="M437.036 285.039L385.891 288.209L398.714 309.444L437.036 285.039Z" stroke="white" stroke-linecap="round" stroke-linejoin="round"/>
<path d="M639.565 276.988L605.604 299.373L572.335 264.702L639.565 276.988Z" stroke="white" stroke-linecap="round" stroke-linejoin="round"/>
<path d="M652.851 305.264L711.1 391.101L693.195 310.51L652.851 305.264Z" stroke="white" stroke-linecap="round" stroke-linejoin="round"/>
<path d="M357.562 463.529L339.282 450.345L334.661 416.403L357.562 463.529Z" stroke="white" stroke-linecap="round" stroke-linejoin="round"/>
<path d="M652.849 305.264L572.334 264.702L639.564 276.988L652.849 305.264Z" stroke="white" stroke-linecap="round" stroke-linejoin="round"/>
<path d="M617.587 207.057L605.602 299.373L572.334 264.702L617.587 207.057Z" stroke="white" stroke-linecap="round" stroke-linejoin="round"/>
<path d="M484.484 150.225L617.587 207.057L534.473 139.173L484.484 150.225Z" stroke="white" stroke-linecap="round" stroke-linejoin="round"/>
<path d="M444.922 82.8735L457.08 125.483L414.83 127.559L444.922 82.8735Z" stroke="white" stroke-linecap="round" stroke-linejoin="round"/>
<path d="M644.533 746.342L655.045 737.871L637.429 673.1L644.533 746.342Z" stroke="white" stroke-linecap="round" stroke-linejoin="round"/>
<path d="M737.263 688.921L819.684 552.227L744.512 597.137L737.263 688.921Z" stroke="white" stroke-linecap="round" stroke-linejoin="round"/>
<path d="M153.734 557.641L240.833 478.172L212.618 510.936L153.734 557.641Z" stroke="white" stroke-linecap="round" stroke-linejoin="round"/>
<path d="M109.838 623.057L128.812 554.331L153.734 557.641L109.838 623.057Z" stroke="white" stroke-linecap="round" stroke-linejoin="round"/>
<path d="M701.713 167.448L786.184 189.889L723.69 116.142L701.713 167.448Z" stroke="white" stroke-linecap="round" stroke-linejoin="round"/>
<path d="M460.893 471.552L519.69 347.902L397.677 403.331L460.893 471.552Z" stroke="white" stroke-linecap="round" stroke-linejoin="round"/>
<path d="M368.768 431.27L460.892 471.552L397.676 403.331L368.768 431.27Z" stroke="white" stroke-linecap="round" stroke-linejoin="round"/>
<path d="M40.1232 378.113L43.0977 447.765L111.599 440.051L40.1232 378.113Z" stroke="white" stroke-linecap="round" stroke-linejoin="round"/>
<path d="M744.511 597.138L836.115 521.091L819.683 552.227L744.511 597.138Z" stroke="white" stroke-linecap="round" stroke-linejoin="round"/>
<path d="M841.949 315.054L815.005 263.636L827.481 272.837L841.949 315.054Z" stroke="white" stroke-linecap="round" stroke-linejoin="round"/>
<path d="M782.025 267.872L786.184 189.889L723.69 116.142L782.025 267.872Z" stroke="white" stroke-linecap="round" stroke-linejoin="round"/>
<path d="M74.5479 238.923L175.913 106.381L105.824 175.723L74.5479 238.923Z" stroke="white" stroke-linecap="round" stroke-linejoin="round"/>
<path d="M691.027 715.654L775.354 648.275L737.262 688.921L691.027 715.654Z" stroke="white" stroke-linecap="round" stroke-linejoin="round"/>
<path d="M282.505 762.949L144.204 665.919L193.384 712.484L282.505 762.949Z" stroke="white" stroke-linecap="round" stroke-linejoin="round"/>
<path d="M721.668 501.847L636.85 414.72L519.688 347.902L721.668 501.847Z" stroke="white" stroke-linecap="round" stroke-linejoin="round"/>
<path d="M519.689 347.902L639.565 276.988L572.335 264.702L519.689 347.902Z" stroke="white" stroke-linecap="round" stroke-linejoin="round"/>
<path d="M452.718 228.375L484.485 150.225L572.335 264.702L452.718 228.375Z" stroke="white" stroke-linecap="round" stroke-linejoin="round"/>
<path d="M348.638 171.487L503.862 208.908L484.485 150.225L348.638 171.487Z" stroke="white" stroke-linecap="round" stroke-linejoin="round"/>
<path d="M572.335 264.702L503.863 208.908L519.689 347.902L572.335 264.702Z" stroke="white" stroke-linecap="round" stroke-linejoin="round"/>
<path d="M572.335 264.702L701.713 167.448L617.588 207.057L572.335 264.702Z" stroke="white" stroke-linecap="round" stroke-linejoin="round"/>
<path d="M657.124 66.4917L701.713 167.448L690.941 87.3899L657.124 66.4917Z" stroke="white" stroke-linecap="round" stroke-linejoin="round"/>
<path d="M403.076 9.68788L449.023 6.26562L576.032 29.3799L403.076 9.68788Z" stroke="white" stroke-linecap="round" stroke-linejoin="round"/>
<path d="M748.468 235.052L772.466 342.685L786.184 189.889L748.468 235.052Z" stroke="white" stroke-linecap="round" stroke-linejoin="round"/>
<path d="M253.338 125.119L105.824 175.723L175.913 106.381L253.338 125.119Z" stroke="white" stroke-linecap="round" stroke-linejoin="round"/>
<path d="M288.687 313.904L287.156 249.274L277.337 296.708L288.687 313.904Z" stroke="white" stroke-linecap="round" stroke-linejoin="round"/>
<path d="M212.388 197.435L287.156 249.274L288.687 313.904L212.388 197.435Z" stroke="white" stroke-linecap="round" stroke-linejoin="round"/>
<path d="M202.885 295.979L277.624 296.456L175.768 367.874L202.885 295.979Z" stroke="white" stroke-linecap="round" stroke-linejoin="round"/>
<path d="M282.506 762.949L387.048 790.832L440.503 781.883L282.506 762.949Z" stroke="white" stroke-linecap="round" stroke-linejoin="round"/>
<path d="M555.961 780.677L644.533 746.342L601.301 776.89L555.961 780.677Z" stroke="white" stroke-linecap="round" stroke-linejoin="round"/>
<path d="M630.122 602.636L565.289 631.416L548.308 628.78L630.122 602.636Z" stroke="white" stroke-linecap="round" stroke-linejoin="round"/>
<path d="M542.735 590.237L460.892 471.552L425.458 546.729L542.735 590.237Z" stroke="white" stroke-linecap="round" stroke-linejoin="round"/>
<path d="M360.997 693.718L387.046 790.832L281.06 762.949L360.997 693.718Z" stroke="white" stroke-linecap="round" stroke-linejoin="round"/>
<path d="M498.231 733.046L394.988 664.46L548.307 628.779L498.231 733.046Z" stroke="white" stroke-linecap="round" stroke-linejoin="round"/>
<path d="M644.533 746.342L498.232 733.046L590.385 668.612L644.533 746.342Z" stroke="white" stroke-linecap="round" stroke-linejoin="round"/>
<path d="M476.398 801.772L387.047 790.832L440.502 781.883L476.398 801.772Z" stroke="white" stroke-linecap="round" stroke-linejoin="round"/>
<path d="M138.573 245.964L105.824 175.723L74.5486 238.923L138.573 245.964Z" stroke="white" stroke-linecap="round" stroke-linejoin="round"/>
<path d="M105.824 369.558L76.599 316.204L138.573 245.964L105.824 369.558Z" stroke="white" stroke-linecap="round" stroke-linejoin="round"/>
<path d="M111.599 440.05L105.823 369.558L57.5372 517.893L111.599 440.05Z" stroke="white" stroke-linecap="round" stroke-linejoin="round"/>
<path d="M228.068 680.927L144.204 665.919L282.505 762.949L228.068 680.927Z" stroke="white" stroke-linecap="round" stroke-linejoin="round"/>
<path d="M357.563 463.529L460.892 471.552L339.282 450.345L357.563 463.529Z" stroke="white" stroke-linecap="round" stroke-linejoin="round"/>
<path d="M452.72 228.376L437.038 285.039L398.716 309.444L452.72 228.376Z" stroke="white" stroke-linecap="round" stroke-linejoin="round"/>
<path d="M385.894 288.209L325.421 254.8L287.156 249.274L385.894 288.209Z" stroke="white" stroke-linecap="round" stroke-linejoin="round"/>
<path d="M271.619 362.517L288.687 313.904L334.662 416.403L271.619 362.517Z" stroke="white" stroke-linecap="round" stroke-linejoin="round"/>
<path d="M398.713 309.444L288.684 313.904L271.617 362.517L398.713 309.444Z" stroke="white" stroke-linecap="round" stroke-linejoin="round"/>
<path d="M320.941 181.979L212.385 197.435L138.571 245.964L320.941 181.979Z" stroke="white" stroke-linecap="round" stroke-linejoin="round"/>
<path d="M320.941 181.979L138.571 245.964" stroke="white" stroke-width="2" stroke-linecap="round" stroke-linejoin="round"/>
<path d="M519.69 347.902L288.688 313.904" stroke="white" stroke-width="2" stroke-linecap="round" stroke-linejoin="round"/>
<path d="M576.032 29.3801L503.864 208.908" stroke="white" stroke-width="2" stroke-linecap="round" stroke-linejoin="round"/>
<path d="M636.851 414.72L565.289 631.416" stroke="white" stroke-width="3" stroke-linecap="round" stroke-linejoin="round"/>
<path d="M693.193 310.51L639.565 276.988" stroke="white" stroke-width="3" stroke-linecap="round" stroke-linejoin="round"/>
<path d="M397.676 403.331L339.051 450.345" stroke="white" stroke-width="3" stroke-linecap="round" stroke-linejoin="round"/>
<path d="M212.619 510.936L175.914 366.977" stroke="white" stroke-width="3" stroke-linecap="round" stroke-linejoin="round"/>
</svg>
